<svg id="placeholder" xmlns="http://www.w3.org/2000/svg" width="16.805" height="16.805" viewBox="0 0 16.805 16.805">
  <path id="Path_1274" data-name="Path 1274" d="M11.8,43a.28.28,0,1,0-.066.556c2.945.347,4.514,1.281,4.514,1.822,0,.76-2.983,1.821-7.842,1.821S.56,46.14.56,45.38c0-.541,1.569-1.476,4.514-1.822A.28.28,0,1,0,5.009,43C2.06,43.349,0,44.327,0,45.38c0,1.183,2.886,2.381,8.4,2.381s8.4-1.2,8.4-2.381C16.8,44.327,14.745,43.349,11.8,43Z" transform="translate(0 -30.956)" fill="#e4aa4f"/>
  <path id="Path_1275" data-name="Path 1275" d="M16.017,15.336l4.3-6.206a6.12,6.12,0,0,0-.5-7.557,5.37,5.37,0,0,0-7.6,0,6.118,6.118,0,0,0-.505,7.549Zm.05-11.975a1.961,1.961,0,1,1-1.961,1.961A1.963,1.963,0,0,1,16.067,3.361Z" transform="translate(-7.664 0)" fill="#e4aa4f"/>
</svg>
