<svg xmlns="http://www.w3.org/2000/svg" width="16.805" height="16.805" viewBox="0 0 16.805 16.805">
  <g id="telephone_1_" data-name="telephone (1)" transform="translate(0)">
    <g id="Group_138" data-name="Group 138">
      <path id="Path_1271" data-name="Path 1271" d="M12.782,55.641a1.177,1.177,0,0,0-1.78,0c-.416.413-.832.825-1.241,1.245a.245.245,0,0,1-.343.063c-.269-.147-.556-.266-.815-.427A12.91,12.91,0,0,1,5.491,53.69,7.373,7.373,0,0,1,4.375,51.9a.256.256,0,0,1,.063-.329c.416-.4.822-.815,1.231-1.227a1.182,1.182,0,0,0,0-1.822c-.325-.329-.65-.65-.976-.979s-.668-.675-1.007-1.007a1.185,1.185,0,0,0-1.78,0c-.42.413-.822.836-1.248,1.241a2.026,2.026,0,0,0-.636,1.367,5.793,5.793,0,0,0,.448,2.493,15.151,15.151,0,0,0,2.689,4.48,16.641,16.641,0,0,0,5.511,4.312,7.971,7.971,0,0,0,3.053.888,2.237,2.237,0,0,0,1.92-.731c.357-.4.759-.762,1.137-1.144a1.19,1.19,0,0,0,.007-1.811Q13.786,56.636,12.782,55.641Z" transform="translate(-0.006 -44.524)" fill="#e4aa4f"/>
      <path id="Path_1272" data-name="Path 1272" d="M241.645,100.973l1.29-.22a5.792,5.792,0,0,0-4.9-4.752l-.182,1.3a4.476,4.476,0,0,1,3.791,3.675Z" transform="translate(-229.536 -92.643)" fill="#e4aa4f"/>
      <path id="Path_1273" data-name="Path 1273" d="M248.391,2.721A9.515,9.515,0,0,0,242.936,0l-.182,1.3a8.3,8.3,0,0,1,7.025,6.809l1.29-.22A9.585,9.585,0,0,0,248.391,2.721Z" transform="translate(-234.265)" fill="#e4aa4f"/>
    </g>
  </g>
</svg>
