<svg id="_4th-of-july" data-name="4th-of-july" xmlns="http://www.w3.org/2000/svg" width="22.201" height="22.201" viewBox="0 0 22.201 22.201">
  <path id="Path_27" data-name="Path 27" d="M151,152h16.038v1.657H151Z" transform="translate(-147.919 -145.521)" fill="#acacac"/>
  <path id="Path_28" data-name="Path 28" d="M91,152h1.657v1.657H91Z" transform="translate(-87.121 -145.521)" fill="#acacac"/>
  <path id="Path_29" data-name="Path 29" d="M391,152h1.657v1.657H391Z" transform="translate(-374.334 -145.521)" fill="#acacac"/>
  <path id="Path_30" data-name="Path 30" d="M19.556,2.688V1.951a1.951,1.951,0,0,0-3.9,0v.737h-2.6V1.951a1.951,1.951,0,0,0-3.9,0v.737h-2.6V1.951a1.951,1.951,0,0,0-3.9,0v.737H0V22.2H22.2V2.688Zm-2.6-.737a.65.65,0,0,1,1.3,0v.737h-1.3Zm-6.5,0a.65.65,0,1,1,1.3,0v.737h-1.3Zm-6.5,0a.65.65,0,0,1,1.3,0v.737h-1.3Zm1.3,2.038v1.3h1.3v-1.3h5.2v1.3h1.3v-1.3h5.2v1.3h1.3v-1.3H20.9v5.2H1.3v-5.2ZM1.3,20.9V10.494H20.9V20.9Z" fill="#acacac"/>
</svg>
