<svg xmlns="http://www.w3.org/2000/svg" width="20.201" height="25.186" viewBox="0 0 20.201 25.186">
  <g id="placeholder" transform="translate(-47.2)">
    <g id="Group_401" data-name="Group 401" transform="translate(47.2)">
      <path id="Path_772" data-name="Path 772" d="M57.3,0A10.109,10.109,0,0,0,47.2,10.1a9.936,9.936,0,0,0,.18,1.9c.005.037.026.148.069.338a9.943,9.943,0,0,0,.676,1.991c1.088,2.561,3.48,6.494,8.728,10.708a.715.715,0,0,0,.9,0c5.243-4.213,7.64-8.147,8.728-10.708a9.831,9.831,0,0,0,.676-1.991c.042-.19.063-.3.069-.338a10.382,10.382,0,0,0,.18-1.9A10.125,10.125,0,0,0,57.3,0Zm8.511,11.743c0,.011-.005.021-.005.032-.005.026-.021.106-.048.227v.011a8.382,8.382,0,0,1-.586,1.721c-.005.005-.005.016-.011.021-.987,2.339-3.152,5.908-7.862,9.8-4.71-3.891-6.875-7.461-7.862-9.8-.005-.005-.005-.016-.011-.021a8.942,8.942,0,0,1-.586-1.721V12c-.032-.121-.042-.2-.048-.227,0-.011-.005-.021-.005-.037a8.669,8.669,0,1,1,17.023.005Z" transform="translate(-47.2)" fill="#acacac"/>
      <path id="Path_773" data-name="Path 773" d="M123.41,71.9a6.41,6.41,0,1,0,6.41,6.41A6.42,6.42,0,0,0,123.41,71.9Zm0,11.394a4.984,4.984,0,1,1,4.984-4.984A4.99,4.99,0,0,1,123.41,83.294Z" transform="translate(-113.315 -68.104)" fill="#acacac"/>
    </g>
  </g>
</svg>
