<svg xmlns="http://www.w3.org/2000/svg" width="24.5" height="24.5" viewBox="0 0 24.5 24.5">
  <g id="facebook-logo" transform="translate(0 -10)">
    <path id="Facebook__x28_alt_x29_" d="M24.5,4.084A4.232,4.232,0,0,0,20.417,0H4.083A4.232,4.232,0,0,0,0,4.084V20.416A4.232,4.232,0,0,0,4.084,24.5H12.25V15.244H9.256V11.161H12.25V9.57c0-2.744,2.06-5.215,4.594-5.215h3.3V8.439h-3.3c-.361,0-.783.439-.783,1.1v1.627h4.083v4.083H16.061V24.5h4.356A4.232,4.232,0,0,0,24.5,20.416Z" transform="translate(0 10)" fill="#fff"/>
  </g>
</svg>
