<svg xmlns="http://www.w3.org/2000/svg" width="434" height="55.782" viewBox="0 0 434 55.782">
  <g id="_1._Logo_mau_-_Bo_cuc_ngang_1" data-name="1. Logo mau - Bo cuc ngang 1" transform="translate(-187.081 -267.642)">
    <path id="Path_23" data-name="Path 23" d="M189.6,297.946c3.34,2.6,11.135,4.454,18.373,1.856,5.753-2.134,12.9-12.434,20.228-15.032a11.029,11.029,0,0,1,13.083,4.361c2.505-7.33-8.166-13.084-14.754-9.372-7.98,4.454-10.485,10.857-15.032,14.939,4.547-6.031,7.98-13.826,13.269-16.517a10.784,10.784,0,0,1,11.32.65c-.742-6.588-9.465-8.63-15.96-3.712-5.939,4.361-5.1,9.465-9.743,18.929,2.041-6.217,3.433-13.64,7.052-18.28a10.576,10.576,0,0,1,9.836-3.99c-3.248-5.382-10.485-3.062-12.434-1.485-6.031,4.825-4.454,13.269-5.939,23.662-.278-7.33-.278-16.053,1.3-19.579a10.614,10.614,0,0,1,6.588-5.846c-4.918-2.784-10.764,1.577-11.784,4.732-1.577,4.64-.835,10.764,2.505,20.785a33.616,33.616,0,0,1-4.547-14.475,12.924,12.924,0,0,1,3.433-9.743c-4.825-.65-9.65,3.99-8.258,11.042.928,5.011,4.918,10.578,7.887,14.1a25.618,25.618,0,0,1-7.609-9.743c-1.856-4.361-1.856-8.073-.557-10.764-6.4,1.577-6.681,9.929-2.691,15.032a22.55,22.55,0,0,0,9.836,7.052c-4.547-1.392-7.516-2.784-9.557-4.918a11.867,11.867,0,0,1-3.433-10.578c-3.712,2.227-5.567,8.815,1.949,14.568,2.6,1.949,7.238,2.691,10.857,2.6-3.99.928-8.258-.093-12.341-2.784a8.272,8.272,0,0,1-3.712-6.959A6.461,6.461,0,0,0,189.6,297.946Z" transform="translate(0 0)" fill="#b02a30" fill-rule="evenodd"/>
    <path id="Path_24" data-name="Path 24" d="M240.855,294.759c-3.34-2.6-11.135-4.454-18.373-1.856-5.753,2.041-12.9,12.341-20.228,15.032a11.03,11.03,0,0,1-13.083-4.361c-2.505,7.33,8.166,13.084,14.754,9.372,7.98-4.454,10.485-10.857,15.032-14.939-4.547,6.031-7.98,13.826-13.269,16.517a10.784,10.784,0,0,1-11.32-.65c.742,6.588,9.465,8.63,15.96,3.712,5.939-4.361,5.1-9.465,9.743-18.929-2.041,6.217-3.433,13.64-7.052,18.28a10.86,10.86,0,0,1-9.836,4.083c3.248,5.382,10.485,3.062,12.434,1.485,6.031-4.825,4.454-13.269,5.939-23.662.278,7.331.278,16.053-1.3,19.579a10.614,10.614,0,0,1-6.588,5.846c4.918,2.784,10.764-1.577,11.784-4.732,1.577-4.639.835-10.764-2.505-20.785a33.617,33.617,0,0,1,4.547,14.475,13.294,13.294,0,0,1-3.433,9.743c4.825.65,9.557-3.99,8.258-11.042-.928-5.011-4.918-10.578-7.887-14.1a25.618,25.618,0,0,1,7.609,9.743c1.856,4.361,1.856,8.073.557,10.764,6.4-1.577,6.681-9.929,2.691-15.032a22.551,22.551,0,0,0-9.836-7.052c4.547,1.392,7.516,2.784,9.557,4.918a11.867,11.867,0,0,1,3.433,10.578c3.712-2.227,5.567-8.815-1.949-14.568-2.6-1.949-7.238-2.691-10.857-2.691,3.99-.928,8.258.093,12.341,2.784a8.187,8.187,0,0,1,3.712,6.959A6.536,6.536,0,0,0,240.855,294.759Z" transform="translate(-0.124 -1.731)" fill="#e4aa4f" fill-rule="evenodd"/>
    <path id="Path_25" data-name="Path 25" d="M520.543,310.144c1.021,0,2.227-.278,3.34-.278s2.227.278,3.341.278l-10.857-27.188a1.633,1.633,0,0,0-.557.093h-1.763a2.043,2.043,0,0,1-.742-.093L502.17,310.052a14.918,14.918,0,0,1,2.877-.093c.278,0,.557.093.835.093.742-2.413,6.5-17.259,7.516-19.579,1.114,2.784,6.4,16.888,7.145,19.672m38.415-.093V283.235h3.9c5.66,6.124,11.228,12.156,16.888,18.28v-18.28a3.2,3.2,0,0,0,.835.093h.742l1.577-.186v26.909l-3.34-.093c-2.227-2.505-4.454-4.918-6.588-7.423-1.856-2.134-4.083-4.454-6.5-7.145l-4.268-4.454v19.022a3.2,3.2,0,0,0-.835-.093h-.742Zm81.1-12.063v10.764c-2.041.557-3.8,1.021-5.475,1.3a29.4,29.4,0,0,1-4.918.464,17.367,17.367,0,0,1-10.857-3.248c-3.155-2.413-4.732-5.753-4.732-10.207,0-4.64,1.577-8.351,4.732-10.949,2.876-2.505,6.774-3.712,11.506-3.712a20.457,20.457,0,0,1,4.918.557,18.187,18.187,0,0,1,4.454,1.856,15.405,15.405,0,0,0-1.113,3.9h-.557a9.1,9.1,0,0,0-7.7-3.99,8.473,8.473,0,0,0-7.33,3.8,15.114,15.114,0,0,0-2.413,8.722c0,3.433.835,6.031,2.505,7.98a8.644,8.644,0,0,0,6.959,2.877,9.074,9.074,0,0,0,2.412-.278,6.7,6.7,0,0,0,1.856-.835V297.8a9.611,9.611,0,0,1,1.485.093,9.615,9.615,0,0,0,1.485.093,14.157,14.157,0,0,0,1.67-.093A7.737,7.737,0,0,0,640.057,297.989Zm-175.56-9.65h-.557a5.886,5.886,0,0,0-1.763-2.6,4.558,4.558,0,0,0-2.784-.928,4.857,4.857,0,0,0-3.248,1.021,3.777,3.777,0,0,0-1.113,2.784c0,1.392,1.021,2.691,3.062,3.8,3.619,2.041,5.567,3.062,5.753,3.248a7.563,7.563,0,0,1,3.062,6.217,7.778,7.778,0,0,1-2.877,6.217,11.325,11.325,0,0,1-7.423,2.413,12.712,12.712,0,0,1-3.34-.371,10.687,10.687,0,0,1-2.969-1.3c.186-.835.464-1.67.65-2.6.186-.835.371-1.67.464-2.32h.742a5.131,5.131,0,0,0,1.949,3.155,5.442,5.442,0,0,0,3.433,1.114,5.219,5.219,0,0,0,3.248-1.021,3.707,3.707,0,0,0,1.392-3.062c0-1.67-1.021-3.062-2.969-4.176-1.856-1.021-3.712-1.949-5.567-2.969a7.494,7.494,0,0,1-3.062-6.31,7.834,7.834,0,0,1,2.227-5.753,9.056,9.056,0,0,1,6.681-2.413,11.966,11.966,0,0,1,3.712.557,7.79,7.79,0,0,1,2.505,1.3c-.278.65-.464,1.3-.742,2.041C464.775,287.225,464.59,287.875,464.5,288.339Z" transform="translate(-18.976 -1.064)" fill="#b02a30"/>
    <path id="Path_26" data-name="Path 26" d="M325.232,306.158V287.6a4.551,4.551,0,0,1,1.021.093,5.663,5.663,0,0,0,2.041,0,4.551,4.551,0,0,1,1.021-.093v7.33c.464,0,1.3,0,2.413.093a15.751,15.751,0,0,1,1.763.093c.464,0,1.206,0,2.32-.093a15.748,15.748,0,0,0,1.763-.093V287.6a4.551,4.551,0,0,1,1.021.093,5.663,5.663,0,0,0,2.041,0,4.551,4.551,0,0,1,1.021-.093v18.558a5,5,0,0,1-1.021-.093,5.66,5.66,0,0,0-2.041,0,5,5,0,0,1-1.021.093v-9a18.872,18.872,0,0,1-2.041-.093,18.879,18.879,0,0,0-2.041-.093,18.024,18.024,0,0,0-2.041.093,18.872,18.872,0,0,1-2.041.093v9a5,5,0,0,1-1.021-.093,5.66,5.66,0,0,0-2.041,0,5.8,5.8,0,0,1-1.113.093m58.087-18.465H395.66c0,.186-.093.464-.093.742a1.126,1.126,0,0,1-.093.464c.093.371.093.742.186,1.113-.928-.093-2.041-.186-3.433-.278s-2.691-.093-3.9-.093H387.4v5.846h6.217c.464,0,1.113-.093,2.041-.186a5.43,5.43,0,0,0-.186,1.206,1.379,1.379,0,0,0,.093.557,1.319,1.319,0,0,0,.186.557c-.464,0-1.114-.093-1.949-.186a16.578,16.578,0,0,0-1.949-.093h-4.268v6.866c1.577,0,3.062,0,4.547-.093s2.784-.186,3.8-.278c-.093.371-.093.742-.186,1.114a1.177,1.177,0,0,0,.093.557c0,.186.093.464.093.65H383.6V287.693Zm-103.926,1.856v16.61a5,5,0,0,1-1.021-.093,5.66,5.66,0,0,0-2.041,0,5,5,0,0,1-1.021.093v-16.61a23.448,23.448,0,0,0-2.6.093c-.835.093-1.67.186-2.413.278,0-.186.093-.464.093-.742a1.887,1.887,0,0,1,.093-.464,1.177,1.177,0,0,0-.093-.557c0-.186-.093-.371-.093-.557h13.919c-.093.371-.093.742-.186,1.114a1.177,1.177,0,0,0,.093.557c0,.186.093.371.093.557q-1.392-.139-2.505-.278A19.346,19.346,0,0,1,279.394,289.549Z" transform="translate(-5.999 -1.439)" fill="#e4aa4f" fill-rule="evenodd"/>
  </g>
</svg>
