<svg id="Group_129" data-name="Group 129" xmlns="http://www.w3.org/2000/svg" width="24.5" height="24.5" viewBox="0 0 24.5 24.5">
  <g id="youtube-logo" transform="translate(0)">
    <g id="Group_26" data-name="Group 26" transform="translate(0)">
      <path id="Path_41" data-name="Path 41" d="M23.155,1.348A4.424,4.424,0,0,0,19.909,0H4.6A4.425,4.425,0,0,0,1.351,1.348,4.425,4.425,0,0,0,0,4.594V19.906a4.426,4.426,0,0,0,1.348,3.246A4.425,4.425,0,0,0,4.6,24.5H19.909A4.6,4.6,0,0,0,24.5,19.906V4.594A4.426,4.426,0,0,0,23.155,1.348ZM14.47,3.541h1.069V7.879a2.43,2.43,0,0,0,.016.415q.016.255.255.255.319,0,.67-.494V3.541h1.069v5.9H16.48V8.8a1.782,1.782,0,0,1-1.228.718.672.672,0,0,1-.686-.431,2.974,2.974,0,0,1-.1-.877V3.541ZM10.435,5.455a2.363,2.363,0,0,1,.335-1.388,1.432,1.432,0,0,1,1.244-.606,1.484,1.484,0,0,1,1.244.606,2.362,2.362,0,0,1,.335,1.388V7.529a2.274,2.274,0,0,1-.335,1.388,1.483,1.483,0,0,1-1.244.606,1.432,1.432,0,0,1-1.244-.606,2.364,2.364,0,0,1-.335-1.388ZM7.563,1.515l.845,3.111.813-3.111h1.2L8.983,6.236h0V9.443H7.8V6.236a21.913,21.913,0,0,0-.734-2.52L6.7,2.616l-.383-1.1H7.563ZM20.707,20.768a2.242,2.242,0,0,1-.678,1.164,2.092,2.092,0,0,1-1.2.558q-2.185.239-6.572.239t-6.572-.239a2.1,2.1,0,0,1-1.2-.558A2.244,2.244,0,0,1,3.8,20.768a19.556,19.556,0,0,1-.319-4.147A19.968,19.968,0,0,1,3.8,12.473,2.205,2.205,0,0,1,4.477,11.3a2.128,2.128,0,0,1,1.22-.55,65.309,65.309,0,0,1,6.556-.239,65.6,65.6,0,0,1,6.572.239,2.152,2.152,0,0,1,1.212.55,2.181,2.181,0,0,1,.686,1.173,20.432,20.432,0,0,1,.3,4.147A19.559,19.559,0,0,1,20.707,20.768Z" transform="translate(-0.003 0)" fill="#fff"/>
      <path id="Path_42" data-name="Path 42" d="M85.651,225.809H86.9v6.747h1.18v-6.747h1.276v-1.117h-3.7Z" transform="translate(-80.866 -212.139)" fill="#fff"/>
      <path id="Path_43" data-name="Path 43" d="M156.723,265.126q-.351.494-.67.494-.223,0-.239-.239a2.4,2.4,0,0,1-.016-.415v-4.307h-1.053v4.626a2.711,2.711,0,0,0,.1.861.627.627,0,0,0,.67.447,1.7,1.7,0,0,0,1.212-.718v.638h1.069v-5.853h-1.069Z" transform="translate(-146.1 -246.097)" fill="#fff"/>
      <path id="Path_44" data-name="Path 44" d="M227.711,226.622a1.417,1.417,0,0,0-1.084.638v-2.568h-1.069v7.864h1.069v-.574a1.444,1.444,0,0,0,1.084.654.817.817,0,0,0,.845-.67,4.156,4.156,0,0,0,.112-1.164v-2.329a4.255,4.255,0,0,0-.112-1.18A.817.817,0,0,0,227.711,226.622Zm-.1,4.259q0,.781-.463.782a.749.749,0,0,1-.526-.255v-3.573a.75.75,0,0,1,.526-.255q.463,0,.463.8Z" transform="translate(-212.957 -212.139)" fill="#fff"/>
      <path id="Path_45" data-name="Path 45" d="M298.157,263.482c0,.112,0,.2-.008.263s-.008.1-.008.112a.462.462,0,0,1-.479.414q-.542,0-.542-.813v-1.037h2.122v-1.212a2.285,2.285,0,0,0-.335-1.372,1.432,1.432,0,0,0-1.244-.606,1.517,1.517,0,0,0-1.276.606,2.33,2.33,0,0,0-.319,1.372v2.058a2.244,2.244,0,0,0,.335,1.372,1.534,1.534,0,0,0,1.292.606,1.44,1.44,0,0,0,1.276-.638,1.5,1.5,0,0,0,.239-.638,5.375,5.375,0,0,0,.032-.686v-.143h-1.085v.343h0ZM297.121,261q0-.813.526-.813t.526.813v.543h-1.053Z" transform="translate(-279.527 -244.748)" fill="#fff"/>
      <path id="Path_46" data-name="Path 46" d="M206.362,83.211q.51,0,.51-.813V79.909q0-.829-.51-.829t-.51.829V82.4Q205.852,83.211,206.362,83.211Z" transform="translate(-194.352 -74.662)" fill="#fff"/>
    </g>
  </g>
</svg>
