<svg xmlns="http://www.w3.org/2000/svg" width="176.819" height="39" viewBox="0 0 176.819 39">
  <g id="EDEN_-_Logo_-_Final-07" data-name="EDEN - Logo - Final-07" transform="translate(-135.8 -240.7)">
    <g id="Group_456" data-name="Group 456" transform="translate(135.8 240.7)">
      <g id="Group_453" data-name="Group 453" transform="translate(0)">
        <g id="Group_451" data-name="Group 451">
          <path id="Path_1307" data-name="Path 1307" d="M239.344,266.586v12.943H228.353V266.586a1.951,1.951,0,0,0-1.952-1.952h-1.952v14.895H198.563a12.943,12.943,0,0,1-10.991-6.129,12.914,12.914,0,0,1-10.991,6.129H148.743A12.977,12.977,0,0,1,135.8,266.586V240.7h12.943a12.977,12.977,0,0,1,12.943,12.943v12.943H146.791a1.951,1.951,0,0,0,1.952,1.952h14.895V253.643h12.943a12.945,12.945,0,0,1,10.991,6.163,12.921,12.921,0,0,1,23.934,6.78,12.473,12.473,0,0,1-.137,1.952h2.089V253.643H226.4A12.977,12.977,0,0,1,239.344,266.586Z" transform="translate(-135.8 -240.7)" fill="#888" fill-rule="evenodd"/>
          <path id="Path_1308" data-name="Path 1308" d="M243.5,281.672V275.2a8.439,8.439,0,0,0-8.423-8.423h-8.423v14.895H207.175a6.525,6.525,0,0,1-6.335-5.513h14.826V275.2a8.418,8.418,0,0,0-16.778-.993h-5.273a8.489,8.489,0,0,0-8.355-7.43h-8.423v14.895H157.423a6.488,6.488,0,0,1-6.471-6.472v-4.554h14.895v-8.423a8.439,8.439,0,0,0-8.423-8.423H149v21.366a8.439,8.439,0,0,0,8.423,8.423h27.838a8.489,8.489,0,0,0,8.355-7.43h5.273a8.489,8.489,0,0,0,8.355,7.43H228.61V268.695h6.471a6.488,6.488,0,0,1,6.472,6.472v8.423h6.471v-1.952H243.5Zm-36.261-12.943a6.51,6.51,0,0,1,6.4,5.513H200.841A6.51,6.51,0,0,1,207.244,268.729Zm-56.292-12.943h6.471a6.488,6.488,0,0,1,6.472,6.471v6.471H150.952Zm34.309,25.886h-6.471V268.729h6.471a6.472,6.472,0,0,1,0,12.943Z" transform="translate(-144.48 -249.314)" fill="#f6f6f6" fill-rule="evenodd"/>
        </g>
        <g id="Group_452" data-name="Group 452" transform="translate(99.23 10.752)">
          <path id="Path_1309" data-name="Path 1309" d="M431.049,277.052v-.24a.645.645,0,0,0-.068-.274.46.46,0,0,0-.24-.205.557.557,0,0,0,.377-.582.563.563,0,0,0-.274-.514,1.1,1.1,0,0,0-.616-.137H429.2v2.4h.582v-.924h.308a.368.368,0,0,1,.342.342v.308a.442.442,0,0,0,.068.274h.582a2.175,2.175,0,0,1-.068-.308A.541.541,0,0,0,431.049,277.052Zm-.924-.924h-.308v-.685h.308c.24,0,.377.1.377.308A.343.343,0,0,1,430.125,276.127Z" transform="translate(-427.967 -274.073)" fill="#888" fill-rule="evenodd"/>
          <path id="Path_1310" data-name="Path 1310" d="M429.264,272.751a2.1,2.1,0,0,0-1.507-.651h0a2.068,2.068,0,0,0-1.507.616,2.12,2.12,0,0,0-.651,1.541,2.2,2.2,0,0,0,.616,1.541,2.12,2.12,0,0,0,1.541.651,2.155,2.155,0,0,0,1.507-3.7Zm-.308,2.739a1.655,1.655,0,0,1-2.4,0,1.65,1.65,0,0,1-.479-1.233,1.794,1.794,0,0,1,.479-1.233,1.606,1.606,0,0,1,1.2-.514h0a1.606,1.606,0,0,1,1.2.514,1.794,1.794,0,0,1,.479,1.233A1.677,1.677,0,0,1,428.956,275.49Z" transform="translate(-425.6 -272.1)" fill="#888" fill-rule="evenodd"/>
        </g>
      </g>
      <g id="Group_454" data-name="Group 454" transform="translate(109.981 12.977)">
        <path id="Path_1311" data-name="Path 1311" d="M464.533,287.537v1.849a11.918,11.918,0,0,1-3.047.274c-2.91,0-4.486-.959-4.486-3.869V282.5c0-2.91,1.609-3.9,4.554-3.9a12.169,12.169,0,0,1,2.739.24v1.849a8.127,8.127,0,0,0-2.5-.274c-1.472,0-2.6.377-2.6,2.054v3.321c0,1.4.856,2.02,2.534,2.02A9.708,9.708,0,0,0,464.533,287.537Z" transform="translate(-457 -278.6)" fill="#888"/>
        <path id="Path_1312" data-name="Path 1312" d="M483.789,287.137v.89A5.408,5.408,0,0,1,486.528,287h.377v1.986h-.342a7.059,7.059,0,0,0-2.739.822v5.239H481.7v-7.91Z" transform="translate(-473.243 -284.124)" fill="#888"/>
        <path id="Path_1313" data-name="Path 1313" d="M504.988,291.862h-4.965v.24c0,.924.479,1.37,2.123,1.37a13.646,13.646,0,0,0,2.945-.342v1.712a14.78,14.78,0,0,1-3.321.377c-3.047,0-3.869-1.1-3.869-3.15v-2.123A2.7,2.7,0,0,1,500.913,287h1.061c2.157,0,3.013,1.2,3.013,2.808Zm-4.965-1.575h2.842v-.479c0-.719-.377-1.164-1.267-1.164h-.308c-.89,0-1.267.445-1.267,1.164Z" transform="translate(-483.896 -284.124)" fill="#888"/>
        <path id="Path_1314" data-name="Path 1314" d="M527.925,292.615a8,8,0,0,0,.308,2.431H526.11a2.858,2.858,0,0,1-.137-.514,7.81,7.81,0,0,1-2.739.651,2.246,2.246,0,0,1-2.534-2.431c0-1.507.959-2.226,2.842-2.226h2.26v-.411c0-1.1-.616-1.4-1.883-1.4a12.129,12.129,0,0,0-2.4.274v-1.712a15.251,15.251,0,0,1,2.808-.274c2.089,0,3.63.514,3.63,2.671v2.945Zm-2.123.548v-1.233h-1.609c-.959,0-1.37.24-1.37.753,0,.616.377.89,1.061.89A6.428,6.428,0,0,0,525.8,293.163Z" transform="translate(-498.889 -284.124)" fill="#888"/>
        <path id="Path_1315" data-name="Path 1315" d="M544,284.244h1.2V282.6h2.123v1.644h2.123v1.678h-2.123v3.493c0,.89.308,1.233,1.1,1.233a10.231,10.231,0,0,0,1.267-.137v1.575a7.43,7.43,0,0,1-1.986.274c-1.3,0-2.5-.445-2.5-2.431v-3.972H544Z" transform="translate(-514.211 -281.23)" fill="#888"/>
        <path id="Path_1316" data-name="Path 1316" d="M569.188,291.862h-4.965v.24c0,.924.479,1.37,2.123,1.37a13.646,13.646,0,0,0,2.945-.342v1.712a14.78,14.78,0,0,1-3.321.377c-3.047,0-3.869-1.1-3.869-3.15v-2.123A2.7,2.7,0,0,1,565.113,287h1.061c2.157,0,3.013,1.2,3.013,2.808v2.054Zm-5-1.575h2.842v-.479c0-.719-.377-1.164-1.267-1.164h-.274c-.89,0-1.267.445-1.267,1.164v.479Z" transform="translate(-526.113 -284.124)" fill="#888"/>
      </g>
      <g id="Group_455" data-name="Group 455" transform="translate(110.016 27.906)">
        <path id="Path_1317" data-name="Path 1317" d="M457.1,333.157h4.657c2.773,0,4.04-1.2,4.04-3.287v-3.493c0-2.089-1.233-3.287-4.04-3.287H457.1v10.067Zm2.4-8.115h1.917c1.4,0,1.986.719,1.986,1.507v3.15c0,.89-.582,1.541-1.986,1.541H459.5v-6.2Zm9.69,8.115v-7.4h-2.328v7.4Zm5.513-9.108a7.416,7.416,0,0,1,.993.1v-1.815a9.07,9.07,0,0,0-1.507-.137c-1.678,0-3.013.753-3.013,2.637v.89h-1.267v1.849h1.267v5.547H473.5v-5.547h2.02v-1.849H473.5v-.616c-.034-.753.342-1.061,1.2-1.061Zm5.684,0c-.856,0-1.233.308-1.233,1.1v.616h2.02v1.849h-2.02v5.547h-2.328V327.61h-1.267v-1.849h1.267v-.89c0-1.883,1.335-2.637,3.013-2.637a8.721,8.721,0,0,1,1.507.137v1.815a3.57,3.57,0,0,0-.959-.137Zm7.91,4.177c0-1.472-.822-2.637-2.876-2.637h-1.13a2.552,2.552,0,0,0-2.876,2.773v1.849c0,2.054.822,3.082,3.732,3.082a13.494,13.494,0,0,0,3.219-.377v-1.849a14.84,14.84,0,0,1-2.773.308c-1.438,0-1.883-.308-1.883-1.1h4.554v-2.054Zm-4.554.068c0-.582.308-.89,1.027-.89h.171c.719,0,1.027.308,1.027.89v.274h-2.226v-.274Zm5.547-2.568v7.4h2.328v-4.691a7.241,7.241,0,0,1,2.534-.616h.342v-2.191h-.342a5.38,5.38,0,0,0-2.534.89v-.753h-2.328Zm12.327,2.5c0-1.472-.822-2.637-2.876-2.637h-1.13a2.552,2.552,0,0,0-2.876,2.773v1.849c0,2.054.822,3.082,3.732,3.082a13.494,13.494,0,0,0,3.219-.377v-1.849a14.84,14.84,0,0,1-2.773.308c-1.438,0-1.883-.308-1.883-1.1h4.554v-2.054Zm-4.554.068c0-.582.308-.89,1.027-.89h.171c.719,0,1.027.308,1.027.89v.274h-2.226v-.274Zm7.841-2.568h-2.294v7.4h2.328v-5.17a5.852,5.852,0,0,1,1.712-.342q.822,0,.822,1.027v4.52H509.8v-5.342a2.006,2.006,0,0,0-2.226-2.191,7.124,7.124,0,0,0-2.671.582v-.479Zm9.587,5.581c-1.061,0-1.438-.274-1.438-1.1v-1.575c0-.822.342-1.1,1.438-1.1a8.983,8.983,0,0,1,1.712.137v-1.986a9.781,9.781,0,0,0-2.02-.137c-2.534,0-3.458,1.1-3.458,2.808v2.054c0,1.883,1.1,2.808,3.458,2.808a11.246,11.246,0,0,0,2.191-.137V331.1a4.585,4.585,0,0,1-1.883.205Zm9.348-3.082c0-1.472-.822-2.637-2.876-2.637h-1.13a2.552,2.552,0,0,0-2.876,2.773v1.849c0,2.054.822,3.082,3.732,3.082a13.493,13.493,0,0,0,3.219-.377v-1.849a14.838,14.838,0,0,1-2.773.308c-1.438,0-1.883-.308-1.883-1.1h4.588v-2.054Zm-4.554.068c0-.582.308-.89,1.027-.89h.171c.719,0,1.027.308,1.027.89v.274h-2.226Z" transform="translate(-457.1 -322.2)" fill="#888" fill-rule="evenodd"/>
        <path id="Path_1318" data-name="Path 1318" d="M486.467,323.5H487.7V326h-2.5v-1.267A1.28,1.28,0,0,1,486.467,323.5Z" transform="translate(-475.578 -323.055)" fill="#888" fill-rule="evenodd"/>
      </g>
    </g>
  </g>
</svg>
