<svg xmlns="http://www.w3.org/2000/svg" width="127.235" height="66.109" viewBox="0 0 127.235 66.109">
  <g id="Group_410" data-name="Group 410" transform="translate(-1569 824)">
    <g id="HoangMai-Media-Logo" transform="translate(1569 -824)">
      <path id="Path_1223" data-name="Path 1223" d="M130.986,14.795a2.467,2.467,0,1,1,.606-.947c2.536,1.914,6.832,6.369,9.639,15.78.355-4.306.594-17.342-7.936-27.675,0,0-11.057-3.986-22.857-.566,0,0,8.157,8.636,7.887,19.034,0,0,13.455.457,21.912,9.755C137.54,21.013,133.386,16.65,130.986,14.795Z" transform="translate(-16.761 0)" fill="#888"/>
      <path id="Path_1224" data-name="Path 1224" d="M104.173,19.082a85.753,85.753,0,0,1-10.76,6.776c-7.106,3.675-11.14,5.519-22.331,7.487-15.183,2.671-28.01.772-42.354-3.311-.757-.215-1.3.5-.182.818,5.586,2,15.3,5.164,24.073,5.511,25.47,1,40.4-7.949,51.718-16.49C104.286,19.608,104.231,19.344,104.173,19.082Z" transform="translate(-4.236 -2.896)" fill="#888"/>
      <path id="Path_1225" data-name="Path 1225" d="M1.541,43.368c0-.848-.053-1.987-.932-2.331-.1-.053-.176-.08-.176-.185,0-.159.074-.159.4-.159.3,0,.857.106,1.791.106.578,0,1.184-.106,1.764-.106.1,0,.428,0,.428.132a.2.2,0,0,1-.176.213c-.857.263-.932,1.3-.932,2.331v4.956H14.786V43.369c0-1.033-.078-2.067-.935-2.331a.2.2,0,0,1-.176-.213c0-.132.328-.132.429-.132.58,0,1.187.106,1.767.106.932,0,1.486-.106,1.791-.106.327,0,.4,0,.4.159,0,.105-.076.132-.177.185-.882.344-.932,1.483-.932,2.331V52.7c0,1.7.074,4.029,1.182,4.771.176.131.354.211.354.265,0,.081-.1.106-.3.106-.231,0-.911-.08-2.322-.08-1.213,0-1.994.08-2.222.08-.149,0-.277-.025-.277-.08,0-.081.076-.159.277-.239,1.137-.528,1.137-2.41,1.137-4.823V48.988H3.709V52.7c0,2.413,0,4.295,1.135,4.823.2.08.278.159.278.239,0,.054-.127.08-.278.08-.226,0-1.008-.08-2.218-.08-1.413,0-2.1.08-2.322.08-.2,0-.3-.025-.3-.106,0-.054.176-.133.355-.265,1.111-.742,1.187-3.076,1.187-4.771Z" transform="translate(0 -6.176)" fill="#888"/>
      <path id="Path_1226" data-name="Path 1226" d="M29.828,44.1a7.289,7.289,0,1,1-7.468,7.287A7.351,7.351,0,0,1,29.828,44.1Zm0,13.912c3.735,0,5.069-3.021,5.045-6.625.024-3.6-1.31-6.625-5.045-6.625s-5.071,3.021-5.044,6.625C24.757,54.988,26.093,58.01,29.828,58.01Z" transform="translate(-3.394 -6.693)" fill="#888"/>
      <path id="Path_1227" data-name="Path 1227" d="M53.977,54.3c0,1.671.2,3.392.885,3.629.128.054.2.134.2.214a.207.207,0,0,1-.226.186c-.1,0-.707-.054-.985-.054-.326,0-.653.054-.934.054a.275.275,0,0,1-.3-.214c0-.662-.35-1.748-.43-2.49h-.047c-1.085,2.278-3,3.048-5.325,3.048-2.445,0-5.373-1.351-5.373-4.24,0-4.055,5.75-4.664,8.6-4.664h1.92c0-3.1-.835-5.008-4.038-5.008-1.767,0-4.615,1.005-4.844,3.1,0,.08-.052.108-.126.108-.052,0-.078,0-.1-.08l-.679-2.518A14.04,14.04,0,0,1,47.849,44.1c4.591,0,6.128,2.093,6.128,5.166V54.3Zm-3.884-3.869c-2.671,0-6.229.528-6.229,4.055a3.435,3.435,0,0,0,3.759,3.524c3.786,0,4.34-3.181,4.34-6.413V50.432H50.093Z" transform="translate(-6.289 -6.692)" fill="#888"/>
      <path id="Path_1228" data-name="Path 1228" d="M62.289,44.495v3.046h.077a5.237,5.237,0,0,1,5.2-3.444c2.65,0,5.5,1.3,5.5,5.114V54.4c0,2.915.174,3.207.807,3.5.277.132.453.266.453.318,0,.08-.148.108-.253.108-.276,0-1.21-.054-2.017-.054s-1.741.054-2.1.054c-.2,0-.355-.029-.355-.081,0-.159.38-.265.507-.345.807-.477.932-1.908.932-3.869v-3.6c0-4.506-1.84-5.67-3.985-5.67-2.7,0-4.563,2.6-4.563,5.722v4.083c0,1.933.123,2.836.907,3.364.252.159.453.265.453.32,0,.081-.074.081-.2.081-.428,0-1.364-.054-2.1-.054s-1.666.054-2.093.054c-.128,0-.227-.029-.227-.135,0-.08.227-.159.479-.316.781-.477.906-2.307.906-3.789V48.153c0-2.015-.4-2.387-.857-2.545-.2-.053-.328-.185-.328-.265,0-.106.2-.134.3-.159Z" transform="translate(-8.99 -6.692)" fill="#888"/>
      <path id="Path_1229" data-name="Path 1229" d="M91.249,44.617a2.786,2.786,0,0,0-2.093-1.054,2.449,2.449,0,0,0-1.942,1.181,5.44,5.44,0,0,1,3.454,5.248,5.711,5.711,0,0,1-5.347,5.7c-.96.092-1.942.062-2.9.062-.453,0-1.059.1-1.059.826,0,1.241,4.289,1.4,5.074,1.5,1.84.128,5.37.826,5.37,3.977,0,4.519-4.566,5.407-8.1,5.407-2.876,0-6.687-1.367-6.687-4.773,0-2.194,2.777-3.183,4.136-3.4V59.22c-.756-.159-1.841-.511-1.841-1.716,0-1.4,1.663-2.1,2.573-2.134v-.064a5.78,5.78,0,0,1-3.833-5.312,5.921,5.921,0,0,1,6.1-5.852,9.944,9.944,0,0,1,2.546.412,5.562,5.562,0,0,1,5.273-2.641ZM78.99,63.038c0,2.831,3.381,3.626,4.971,3.626,3.91,0,6.052-1.557,6.052-3.691,0-3.18-4.893-3.307-6.43-3.307C81.741,59.666,78.99,59.95,78.99,63.038Zm1.235-13.012c0,3.368,1.64,5.089,4.24,5.089,2.749,0,4.035-1.846,4.035-5.25,0-3.468-1.564-5.093-4.188-5.093C81.663,44.772,80.225,46.684,80.225,50.026Z" transform="translate(-11.689 -6.359)" fill="#888"/>
      <path id="Path_1230" data-name="Path 1230" d="M110.172,54.446,116.63,40.8h2.876c.377,0,.428.026.428.132-.027.134-.2.134-.379.239-.679.4-.757,1.033-.757,2.2v8.614A14.914,14.914,0,0,0,119.4,56.7c.3.742.96.742.96.98,0,.081-.154.159-.328.159-.3,0-1.086-.08-2.246-.08-1.338,0-2.345.08-2.5.08a.155.155,0,0,1-.175-.159c0-.08.5-.159.831-.528.455-.479.681-1.274.681-3.316V42.6h-.049l-6.81,14.681c-.2.4-.379.689-.556.689-.226,0-.328-.4-.5-.795L102.15,42.785h-.05V53.518c0,2.7.578,3.26,1.364,3.869.2.159.3.24.3.345,0,.081-.1.106-.477.106-.254,0-.681-.08-1.59-.08-1.237,0-1.718.08-1.968.08-.2,0-.279-.053-.279-.133s.255-.211.432-.343c1.133-.982,1.411-2.679,1.411-4.612V43.873c0-1.75-.2-2.306-1.01-2.758-.177-.106-.328-.158-.328-.291.024-.106.328-.132.4-.132.555,0,1.111.106,1.666.106.38,0,.781-.106,1.159-.106a.93.93,0,0,1,.457.08c.1.08.68,1.483.8,1.7Z" transform="translate(-15.093 -6.176)" fill="#888"/>
      <path id="Path_1231" data-name="Path 1231" d="M138.622,54.3c0,1.671.2,3.392.883,3.629.125.054.2.134.2.214a.206.206,0,0,1-.225.186c-.1,0-.708-.054-.986-.054-.328,0-.657.054-.934.054a.276.276,0,0,1-.3-.214c0-.662-.352-1.748-.428-2.49h-.049c-1.086,2.278-3,3.048-5.326,3.048-2.449,0-5.373-1.351-5.373-4.24,0-4.055,5.751-4.664,8.6-4.664H136.6c0-3.1-.835-5.008-4.039-5.008-1.767,0-4.615,1.005-4.845,3.1,0,.08-.048.108-.125.108-.052,0-.076,0-.1-.08l-.682-2.518A14.052,14.052,0,0,1,132.49,44.1c4.59,0,6.13,2.093,6.13,5.166V54.3Zm-3.888-3.869c-2.671,0-6.229.528-6.229,4.055a3.436,3.436,0,0,0,3.759,3.524c3.785,0,4.341-3.181,4.341-6.413V50.432h-1.87Z" transform="translate(-19.135 -6.692)" fill="#888"/>
      <path id="Path_1232" data-name="Path 1232" d="M146.935,52.823c0,2.94.455,4.266,1.06,4.452.226.053.4.079.4.211,0,.08-.176.108-.3.108-.428,0-1.36-.054-2.091-.054-1.288,0-1.819.054-2.1.054-.127,0-.2,0-.2-.108,0-.132.175-.211.427-.318.859-.422.935-1.4.935-3.764V45.668c0-.531-.43-.608-.833-.848-.127-.054-.227-.08-.227-.159s.076-.106.175-.131l2.751-.768v9.063Zm.25-12.3A1.187,1.187,0,1,1,146,39.255,1.233,1.233,0,0,1,147.185,40.526Z" transform="translate(-21.81 -5.958)" fill="#888"/>
      <g id="Group_91" data-name="Group 91" transform="translate(83.956 55.487)">
        <path id="Path_1233" data-name="Path 1233" d="M105.336,73.876l3.172-7.09h2.253c.172,0,.2.043.2.087s-.087.086-.2.115c-.473.1-.6.6-.6,1.277v5.454c0,.847.029,2,.89,2.167.115.029.229.087.229.115s-.115.072-.229.072c-.072,0-.46-.043-1.694-.043-1.1,0-1.492.043-1.635.043-.087,0-.172-.029-.172-.072s.086-.058.23-.1c.732-.2.775-1.335.775-2.182V67.763h-.029l-3.588,7.807c-.029.087-.23.574-.359.574h-.029c-.158,0-.3-.431-.373-.588l-3.546-7.794H100.6V73.2c0,1.005.129,2.267.947,2.6.187.115.3.172.3.215,0,.014-.072.014-.187.014H99.179c-.115,0-.2-.014-.2-.043s.1-.071.2-.129c.789-.431,1.062-1.736,1.062-2.655V68.466c0-.531-.129-1.378-.674-1.492a.134.134,0,0,1-.1-.129c0-.029.043-.058.1-.058h2.368Z" transform="translate(-98.978 -65.623)" fill="#888"/>
        <path id="Path_1234" data-name="Path 1234" d="M115.849,71.573c-.029.33-.043.632-.043.933,0,2.669,1.378,3.659,2.77,3.659a3.524,3.524,0,0,0,3.358-2.813h.3a3.808,3.808,0,0,1-3.847,3.172,3.957,3.957,0,1,1,0-7.893,3.5,3.5,0,0,1,3.659,2.942Zm4.392-.272c0-1.406-.674-2.4-2.167-2.4-1.306,0-2.009,1.163-2.167,2.4Z" transform="translate(-101.279 -65.903)" fill="#888"/>
        <path id="Path_1235" data-name="Path 1235" d="M132.9,72.089c0,.789,0,1.579.058,2.354.043.56.243,1.105.76,1.249.058.014.1.042.1.071s-.071.058-.243.058h-1.694a5.467,5.467,0,0,1-.416-1.435h-.029a3.134,3.134,0,0,1-2.914,1.651,3.712,3.712,0,0,1-3.7-3.947,3.887,3.887,0,0,1,3.7-3.946,3.485,3.485,0,0,1,2.871,1.22h.029V67.152c0-.517,0-.99-.56-1.105-.1-.029-.187-.042-.187-.087s.158-.072.259-.087c.675-.129,1.277-.272,1.966-.459v6.674ZM129,75.678c.933,0,2.5-.919,2.5-3.588,0-3.014-1.564-3.588-2.5-3.588s-2.512.574-2.512,3.588S128.049,75.678,129,75.678Z" transform="translate(-102.9 -65.415)" fill="#888"/>
        <path id="Path_1236" data-name="Path 1236" d="M136.86,69.88c0-.718-.273-.8-.5-.933-.086-.043-.243-.043-.243-.087s.158-.043.258-.058c.674-.13,1.277-.272,1.966-.459v5.712c0,.9.086,1.55.746,1.68.087.014.143.042.143.129,0,.043-.071.043-.2.043s-.66-.043-1.435-.043-1.291.043-1.435.043c-.129,0-.2,0-.2-.043,0-.087.057-.115.143-.129.66-.13.761-.775.761-1.68V69.88Zm-.23-3.315a.854.854,0,1,1,1.708,0,.854.854,0,0,1-1.708,0Z" transform="translate(-104.59 -65.459)" fill="#888"/>
        <path id="Path_1237" data-name="Path 1237" d="M147.946,75.061c0,.473.071.9.517,1.1.087.043.143.043.143.087s-.087.058-.187.058h-1.55a4.286,4.286,0,0,1-.344-1.464H146.5a2.676,2.676,0,0,1-2.655,1.68c-1.493,0-3.028-.689-3.028-2.4,0-2.182,3.33-2.4,4.837-2.4h.819v-.473c0-1.378-.646-2.354-2.1-2.354a2.406,2.406,0,0,0-2.612,1.651c-.058.129-.087.243-.115.243s-.043-.071-.072-.158l-.373-1.292a6.519,6.519,0,0,1,3.387-.717c1.636,0,3.358.588,3.358,2.4ZM146.467,72h-.847c-1.551,0-3.144.46-3.144,2.354a1.742,1.742,0,0,0,1.78,1.808c1.693,0,2.21-1.78,2.21-3.157Z" transform="translate(-105.327 -65.903)" fill="#888"/>
      </g>
    </g>
  </g>
</svg>
