<svg id="Group_411" data-name="Group 411" xmlns="http://www.w3.org/2000/svg" width="252.029" height="20.323" viewBox="0 0 252.029 20.323">
  <path id="Path_1221" data-name="Path 1221" d="M45.828,53.45c-1.478,0-2.217,1.108-2.217,2.587a2.471,2.471,0,0,0,2.217,2.587c1.478,0,2.217-1.108,2.217-2.587s-.739-2.587-2.217-2.587m14.78-14.041a1.6,1.6,0,0,0-1.478.739c-.739.739-6.282,7.021-13.672,7.021-7.021,0-12.194-5.543-13.3-6.651s-1.478-.739-1.478-.739A1.448,1.448,0,0,0,29.2,41.256v15.15a1.662,1.662,0,0,0,1.848,1.847A1.809,1.809,0,0,0,32.9,56.406V46.059A17.887,17.887,0,0,0,46.2,51.6c7.39,0,12.563-5.543,12.563-5.543v9.977c0,.37,0,2.217,1.848,2.217s1.847-2.217,1.847-2.217V41.995C62.455,40.517,61.716,39.408,60.608,39.408Zm24.018,1.109A5.29,5.29,0,0,0,80.561,38.3c-2.586,0-3.326,1.478-4.064,2.217s-9.607,14.041-9.607,14.041a1.809,1.809,0,0,0,.37,2.587c1.478,1.108,2.217.369,2.217.369.369-.369,9.977-13.672,9.977-14.041s.739-.739,1.108-.739,1.109.369,1.109.739c.369.369,9.977,14.041,9.977,14.041A1.7,1.7,0,1,0,94.232,55.3C94.232,54.558,84.625,40.517,84.625,40.517Zm45.449,14.411c-.739-.739-5.173-4.065-5.173-4.065s5.543-.369,5.543-5.543c0,0,0-5.173-4.065-5.543h-25.5a1.809,1.809,0,0,0-1.848,1.848,2.038,2.038,0,0,0,1.848,2.217H125.64s1.109,0,1.109,1.478A1.448,1.448,0,0,1,125.27,46.8H103.1a4.594,4.594,0,0,0-4.064,4.064v5.543a1.809,1.809,0,0,0,1.848,1.847,1.662,1.662,0,0,0,1.847-1.847v-3.7a1.448,1.448,0,0,1,1.478-1.478h8.868s5.173.369,8.5,2.956l5.912,4.065s1.478.739,2.217-.369C130.813,56.406,130.813,55.3,130.074,54.927Z" transform="translate(-29.2 -38.3)" fill="#a8a6a6" fill-rule="evenodd"/>
  <path id="Path_1222" data-name="Path 1222" d="M74.428,53.45c-1.478,0-2.217,1.108-2.217,2.586a2.471,2.471,0,0,0,2.217,2.587c1.478,0,2.217-1.108,2.217-2.587s-.739-2.586-2.217-2.586m14.78-14.041a1.6,1.6,0,0,0-1.478.739c-.739.739-6.281,7.021-13.672,7.021-7.021,0-12.194-5.542-13.3-6.651s-1.478-.739-1.478-.739A1.448,1.448,0,0,0,57.8,41.256v15.15a1.662,1.662,0,0,0,1.847,1.847,1.809,1.809,0,0,0,1.847-1.847V46.06A17.887,17.887,0,0,0,74.8,51.6c7.39,0,12.563-5.542,12.563-5.542v9.977c0,.37,0,2.217,1.848,2.217s1.848-2.217,1.848-2.217V42C91.055,40.517,90.316,39.408,89.208,39.408Zm36.581,0H97.337a2.171,2.171,0,0,0-2.217,2.217c0,2.217,1.847,1.848,2.217,2.217h28.452a1.809,1.809,0,0,0,1.847-1.848C127.636,39.778,126.527,39.408,125.788,39.408Zm0,14.411H100.662s-1.478,0-1.478-1.108V50.494h25.865a2.083,2.083,0,0,0,.369-4.065H98.075s-2.586-.369-2.586,1.478v4.8s0,4.8,4.434,5.173h26.235a2.148,2.148,0,0,0,1.478-2.217A2.02,2.02,0,0,0,125.788,53.819ZM157.2,39.408H133.548s-2.217,0-2.217,1.848,1.109,2.217,1.848,2.217h22.54s4.065,0,4.065,5.173-3.326,5.173-3.7,5.173H134.656V48.277a2.02,2.02,0,0,0-1.847-1.848c-1.848,0-1.848,1.108-1.848,1.478v7.76a1.809,1.809,0,0,0,1.848,1.847h24.018s6.281,0,6.651-9.238C164.216,48.646,164.216,40.148,157.2,39.408Zm12.933,0c-2.217,0-1.848,1.848-1.848,1.848v14.78a1.662,1.662,0,0,0,1.848,1.848,1.809,1.809,0,0,0,1.848-1.848V40.887A1.95,1.95,0,0,0,170.128,39.408Zm33.625,15.519-9.977-14.411a4.527,4.527,0,0,0-4.064-2.217,3.687,3.687,0,0,0-3.7,2.217s-9.237,13.672-9.607,13.672a2.133,2.133,0,0,0,0,2.956,1.931,1.931,0,0,0,2.586,0L188.6,43.473a1.39,1.39,0,0,1,2.217-.37s9.237,12.933,9.607,13.3c.369.739,1.109,2.217,2.956.739C204.861,56.406,203.753,54.928,203.753,54.928Z" transform="translate(47.877 -38.3)" fill="#e01f26" fill-rule="evenodd"/>
</svg>
