<svg id="Group_124" data-name="Group 124" xmlns="http://www.w3.org/2000/svg" width="47.974" height="47.483" viewBox="0 0 47.974 47.483">
  <g id="spread" transform="translate(0)">
    <path id="Path_1268" data-name="Path 1268" d="M109.98,41.905a5.235,5.235,0,0,0-1.04.1l0-11.96a5.023,5.023,0,0,0-5.015-5.019,5.364,5.364,0,0,0-1.09.111,5.02,5.02,0,0,0-10.04-.063v.289a5.34,5.34,0,0,0-1.092-.112,5.026,5.026,0,0,0-5.02,5.02V44.761a5.126,5.126,0,0,0-3.394,4.7c-.1,3.688.2,8.357,3.506,11.756,2.785,2.864,7.127,4.257,13.274,4.257,5.543,0,9.649-1.638,12.2-4.868a14.044,14.044,0,0,0,2.742-8.826L115,46.921A5.026,5.026,0,0,0,109.98,41.905Z" transform="translate(-73.369 -17.991)" fill="#f6f6f6"/>
    <path id="Path_1265" data-name="Path 1265" d="M109.98,41.905a5.235,5.235,0,0,0-1.04.1l0-11.96a5.023,5.023,0,0,0-5.015-5.019,5.364,5.364,0,0,0-1.09.111,5.02,5.02,0,0,0-10.04-.063v.289a5.34,5.34,0,0,0-1.092-.112,5.026,5.026,0,0,0-5.02,5.02V44.761a5.126,5.126,0,0,0-3.394,4.7c-.1,3.688.2,8.357,3.506,11.756,2.785,2.864,7.127,4.257,13.274,4.257,5.543,0,9.649-1.638,12.2-4.868a14.044,14.044,0,0,0,2.742-8.826L115,46.921A5.026,5.026,0,0,0,109.98,41.905ZM100.065,63.1c-12.883,0-14.6-6.531-14.4-13.568a2.785,2.785,0,0,1,2.7-2.7v3.112c0,.392.271.437.352.437s.343-.044.343-.436V30.275A2.643,2.643,0,0,1,91.7,27.632a2.487,2.487,0,0,1,2.618,2.288s-.01,12.6-.01,12.6a.43.43,0,0,0,.861,0V25.117a2.642,2.642,0,0,1,5.285.044l0,19.191a.424.424,0,1,0,.847,0V29.664a2.476,2.476,0,0,1,2.619-2.256,2.637,2.637,0,0,1,2.637,2.642l.006,16.515a.412.412,0,1,0,.824,0v-.148a2.473,2.473,0,0,1,2.593-2.135,2.643,2.643,0,0,1,2.643,2.643l.008,4.855C112.631,56.3,110.875,63.1,100.065,63.1Z" transform="translate(-73.369 -17.991)" fill="#e4aa4f"/>
    <path id="Path_1266" data-name="Path 1266" d="M10.284,6.461a1.189,1.189,0,1,0,0-2.378H4.058A1.189,1.189,0,0,0,2.366,2.414L.348,4.432a1.189,1.189,0,0,0,0,1.681L2.366,8.131A1.189,1.189,0,0,0,4.058,6.461Z" transform="translate(0 -2.066)" fill="#e4aa4f"/>
    <path id="Path_1267" data-name="Path 1267" d="M318.145,4.432l-2.018-2.018a1.189,1.189,0,0,0-1.692,1.669H308.21a1.189,1.189,0,1,0,0,2.378h6.226a1.189,1.189,0,0,0,1.692,1.669l2.018-2.018A1.189,1.189,0,0,0,318.145,4.432Z" transform="translate(-270.52 -2.066)" fill="#e4aa4f"/>
  </g>
</svg>
